<svg width="59" height="59" viewBox="0 0 59 59" fill="none" xmlns="http://www.w3.org/2000/svg">
<path fill-rule="evenodd" clip-rule="evenodd" d="M19.8397 47.742C19.9243 47.742 20.0259 47.759 20.1105 47.8098C21.2108 48.3853 22.3789 48.8762 23.5639 49.2317C23.8008 49.2994 23.9701 49.5194 23.9701 49.7733L23.9871 54.9534C23.9871 55.4951 24.2071 56.0029 24.5964 56.3922C24.9858 56.7816 25.4936 56.9847 26.0353 56.9847L33.5345 56.9677C34.6517 56.9677 35.5659 56.0537 35.5659 54.9195L35.5489 49.7396C35.5489 49.4857 35.7182 49.2655 35.9552 49.1978C37.1401 48.8254 38.3082 48.3345 39.4085 47.7589C39.6286 47.6404 39.8994 47.6744 40.0856 47.8606L43.759 51.5169C44.1484 51.9063 44.6562 52.1094 45.1979 52.1094C45.7396 52.1094 46.2475 51.8893 46.6368 51.5L51.9353 46.1845C52.3246 45.7952 52.5278 45.2874 52.5278 44.7457C52.5278 44.204 52.3077 43.6962 51.9184 43.3068L48.245 39.6503C48.0588 39.481 48.0249 39.1934 48.1434 38.9734C48.719 37.873 49.2099 36.7049 49.5654 35.503C49.6331 35.266 49.8532 35.0968 50.1071 35.0968L55.2871 35.0798C56.4043 35.0798 57.3185 34.1658 57.3185 33.0316L57.3015 25.5324C57.3015 24.4151 56.3874 23.5011 55.2532 23.5011L50.0732 23.518C49.8193 23.518 49.5992 23.3485 49.5315 23.1115C49.1591 21.9266 48.6682 20.7587 48.0926 19.6584C47.9741 19.4383 48.008 19.1674 48.1942 18.9812L51.8507 15.3077C52.24 14.9184 52.4432 14.4106 52.4432 13.8689C52.4432 13.3272 52.2231 12.8194 51.8337 12.43L46.5183 7.13153C46.129 6.74218 45.6211 6.55602 45.0794 6.53909C44.5377 6.53909 44.0299 6.75913 43.6405 7.14847L39.9841 10.8219C39.8148 11.0082 39.527 11.0419 39.3069 10.9234C38.2066 10.3478 37.0386 9.85699 35.8367 9.5015C35.5997 9.43379 35.4304 9.19668 35.4304 8.95969L35.4135 3.7798C35.4135 3.2381 35.1934 2.7303 34.8041 2.34096C34.4147 1.95161 33.9069 1.74831 33.3652 1.74831L25.866 1.76525C24.7488 1.76525 23.8347 2.67951 23.8347 3.81369L23.8516 8.99358C23.8516 9.2475 23.6823 9.46768 23.4453 9.53539C22.2604 9.90781 21.0923 10.3987 19.992 10.9742C19.7719 11.0927 19.5011 11.0588 19.3149 10.8726L15.6415 7.21625C15.2521 6.82691 14.7443 6.6236 14.2026 6.6236C13.6609 6.6236 13.1531 6.84385 12.7637 7.2332L7.46522 12.5484C7.07588 12.9378 6.87273 13.4458 6.87273 13.9875C6.87273 14.5292 7.09282 15.037 7.48217 15.4263L11.1555 19.0829C11.3417 19.2521 11.3756 19.5398 11.2571 19.7598C10.6815 20.8601 10.1906 22.0283 9.83514 23.2302C9.76743 23.4672 9.54736 23.6364 9.29343 23.6364L4.11344 23.6534C2.99619 23.6534 2.0821 24.5674 2.0821 25.7016L2.099 33.2008C2.099 34.3181 3.01315 35.2321 4.14733 35.2321L9.32732 35.2152C9.58124 35.2152 9.80132 35.3844 9.86903 35.6214C10.2415 36.8064 10.7323 37.9745 11.3079 39.0748C11.4264 39.2949 11.3925 39.5658 11.2063 39.752L7.54984 43.4253C7.1605 43.8146 6.9574 44.3226 6.9574 44.8643C6.9574 45.406 7.17744 45.9307 7.56679 46.3032L12.8822 51.6017C13.2716 51.991 13.7794 52.1941 14.3211 52.1941C14.8628 52.1941 15.3706 51.974 15.76 51.5847L19.4164 47.9112C19.5519 47.8097 19.6873 47.742 19.8397 47.742ZM26.0353 58.1528C25.1889 58.1528 24.3933 57.8311 23.7839 57.2217C23.1745 56.6123 22.8528 55.8167 22.8359 54.9703L22.819 50.2134C21.8372 49.8918 20.8723 49.4856 19.9412 49.0285L16.5725 52.4142C15.9631 53.0236 15.1675 53.3453 14.3211 53.3622C13.4747 53.3622 12.6791 53.0405 12.0697 52.4311L6.75422 47.1326C6.14481 46.5232 5.82318 45.7277 5.80625 44.8812C5.80625 44.0348 6.12792 43.2222 6.73733 42.6297L10.106 39.2441C9.63201 38.313 9.24268 37.3651 8.90412 36.3833L4.14733 36.4003C4.14733 36.4003 4.14732 36.4003 4.13039 36.4003C3.28398 36.4003 2.48839 36.0785 1.87898 35.4691C1.26956 34.8597 0.947935 34.0642 0.931007 33.2178L0.914062 25.7185C0.914062 23.958 2.33603 22.5191 4.09655 22.5191L8.85334 22.5022C9.17497 21.5203 9.58122 20.5555 10.0383 19.6245L6.65266 16.2558C6.04325 15.6633 5.72162 14.8508 5.70469 14.0044C5.70469 13.158 6.02635 12.3453 6.63576 11.7529L11.9343 6.43742C12.5267 5.82801 13.3393 5.50648 14.1857 5.48956H14.2026C15.049 5.48956 15.8446 5.81106 16.454 6.42048L19.8397 9.78915C20.7707 9.31516 21.7187 8.92588 22.7005 8.58732L22.6836 3.83064C22.6836 2.07011 24.1055 0.631202 25.866 0.631202L33.3652 0.614258H33.3821C34.2285 0.614258 35.0242 0.935767 35.6336 1.54518C36.243 2.15459 36.5646 2.95034 36.5816 3.79675L36.5984 8.55343C37.5803 8.87506 38.5452 9.28146 39.4762 9.73852L42.8449 6.3529C43.4374 5.74349 44.25 5.42176 45.0964 5.40483H45.1133C45.9597 5.40483 46.7553 5.72655 47.3647 6.33596L52.6801 11.6345C53.2895 12.2269 53.6112 13.0394 53.6281 13.8858C53.6281 14.7322 53.3065 15.5447 52.6971 16.1372L49.3284 19.5228C49.8024 20.4538 50.1917 21.4019 50.5303 22.3838L55.2871 22.3668C57.0476 22.3668 58.4696 23.7888 58.4865 25.5493L58.5034 33.0485C58.5034 33.8949 58.1818 34.7074 57.5724 35.2999C56.963 35.9093 56.1673 36.2308 55.3209 36.2478L50.5641 36.2647C50.2425 37.2465 49.8362 38.2116 49.3792 39.1426L52.7648 42.5113C53.3742 43.1038 53.6958 43.9162 53.7128 44.7626C53.7128 45.609 53.3911 46.4217 52.7817 47.0142L47.4832 52.3294C46.8738 52.9389 46.0782 53.2606 45.2318 53.2775C44.3854 53.2775 43.5898 52.9558 42.9804 52.3464L39.5947 48.9777C38.6637 49.4517 37.7157 49.8412 36.7339 50.1797L36.7508 54.9534C36.7508 56.7139 35.3289 58.1528 33.5684 58.1528H26.0353Z" fill="#58595B"/>
<path fill-rule="evenodd" clip-rule="evenodd" d="M26.9327 25.5327H25.6631V34.1491H26.9327C27.1866 34.1491 27.3897 33.9459 27.3897 33.692V25.9898C27.3897 25.7359 27.1866 25.5327 26.9327 25.5327Z" fill="#DFEAFB"/>
<path fill-rule="evenodd" clip-rule="evenodd" d="M21.9571 25.2449C21.9232 25.2449 21.8894 25.2788 21.8894 25.3127V34.5384C21.8894 34.5722 21.9232 34.6062 21.9571 34.6062H24.801C24.9534 34.6062 25.0888 34.4709 25.0888 34.3185V25.5327C25.0888 25.3804 24.9534 25.2449 24.801 25.2449H21.9571ZM24.801 35.7743H21.9571C21.28 35.7743 20.7383 35.2325 20.7383 34.5553V25.3296C20.7383 24.6525 21.28 24.1108 21.9571 24.1108H24.801C25.5966 24.1108 26.2399 24.7541 26.2399 25.5497V34.3353C26.2399 35.1309 25.5966 35.7743 24.801 35.7743Z" fill="#58595B"/>
<path d="M19.8397 47.742C19.9243 47.742 20.0259 47.759 20.1105 47.8098C21.2108 48.3853 22.3789 48.8762 23.5639 49.2317C23.8008 49.2994 23.9701 49.5194 23.9701 49.7733L23.9871 54.9534C23.9871 55.4951 24.2071 56.0029 24.5964 56.3922C24.9858 56.7816 25.4936 56.9847 26.0353 56.9847L33.5345 56.9677C34.6517 56.9677 35.5659 56.0537 35.5659 54.9195L35.5489 49.7396C35.5489 49.4857 35.7182 49.2655 35.9552 49.1978C37.1401 48.8254 38.3082 48.3345 39.4085 47.7589C39.6286 47.6404 39.8994 47.6744 40.0856 47.8606L43.759 51.5169C44.1484 51.9063 44.6562 52.1094 45.1979 52.1094C45.7396 52.1094 46.2475 51.8893 46.6368 51.5L51.9353 46.1845C52.3246 45.7952 52.5278 45.2874 52.5278 44.7457C52.5278 44.204 52.3077 43.6962 51.9184 43.3068L48.245 39.6503C48.0588 39.481 48.0249 39.1934 48.1434 38.9734C48.719 37.873 49.2099 36.7049 49.5654 35.503C49.6331 35.266 49.8532 35.0968 50.1071 35.0968L55.2871 35.0798C56.4043 35.0798 57.3185 34.1658 57.3185 33.0316L57.3015 25.5324C57.3015 24.4151 56.3874 23.5011 55.2532 23.5011L50.0732 23.518C49.8193 23.518 49.5992 23.3485 49.5315 23.1115C49.1591 21.9266 48.6682 20.7587 48.0926 19.6584C47.9741 19.4383 48.008 19.1674 48.1942 18.9812L51.8507 15.3077C52.24 14.9184 52.4432 14.4106 52.4432 13.8689C52.4432 13.3272 52.2231 12.8194 51.8337 12.43L46.5183 7.13153C46.129 6.74218 45.6211 6.55602 45.0794 6.53909C44.5377 6.53909 44.0299 6.75913 43.6405 7.14847L39.9841 10.8219C39.8148 11.0082 39.527 11.0419 39.3069 10.9234C38.2066 10.3479 37.0386 9.85699 35.8367 9.5015C35.5997 9.43379 35.4304 9.19668 35.4304 8.95969L35.4135 3.7798C35.4135 3.2381 35.1934 2.7303 34.8041 2.34096C34.4147 1.95161 33.9069 1.74831 33.3652 1.74831L25.866 1.76525C24.7488 1.76525 23.8347 2.67951 23.8347 3.81369L23.8516 8.99358C23.8516 9.2475 23.6823 9.46768 23.4453 9.53539C22.2604 9.90781 21.0923 10.3987 19.992 10.9742C19.7719 11.0927 19.5011 11.0588 19.3149 10.8726L15.6415 7.21625C15.2521 6.82691 14.7443 6.6236 14.2026 6.6236C13.6609 6.6236 13.1531 6.84385 12.7637 7.2332L7.46522 12.5484C7.07588 12.9378 6.87273 13.4458 6.87273 13.9875C6.87273 14.5292 7.09282 15.037 7.48217 15.4263L11.1555 19.0829C11.3417 19.2521 11.3756 19.5398 11.2571 19.7598C10.6815 20.8601 10.1906 22.0283 9.83515 23.2302C9.76743 23.4672 9.54736 23.6364 9.29343 23.6364L4.11344 23.6534C2.99619 23.6534 2.0821 24.5674 2.0821 25.7016L2.099 33.2008C2.099 34.3181 3.01315 35.2321 4.14733 35.2321L9.32732 35.2152C9.58124 35.2152 9.80132 35.3844 9.86903 35.6214C10.2415 36.8064 10.7323 37.9745 11.3079 39.0748C11.4264 39.2949 11.3925 39.5658 11.2063 39.752L7.54984 43.4253C7.1605 43.8146 6.9574 44.3226 6.9574 44.8643C6.9574 45.406 7.17744 45.9307 7.56679 46.3031L12.8822 51.6016C13.2716 51.991 13.7794 52.1941 14.3211 52.1941C14.8628 52.1941 15.3706 51.9741 15.76 51.5847L19.4164 47.9112C19.5519 47.8097 19.6873 47.742 19.8397 47.742ZM26.0353 58.1528C25.1889 58.1528 24.3933 57.8311 23.7839 57.2217C23.1745 56.6123 22.8528 55.8167 22.8359 54.9703L22.819 50.2134C21.8372 49.8918 20.8723 49.4856 19.9412 49.0285L16.5725 52.4142C15.9631 53.0236 15.1675 53.3453 14.3211 53.3622C13.4747 53.3622 12.6791 53.0405 12.0697 52.4311L6.75422 47.1326C6.14481 46.5232 5.82318 45.7277 5.80625 44.8812C5.80625 44.0348 6.12792 43.2222 6.73733 42.6297L10.106 39.2441C9.63201 38.313 9.24268 37.3651 8.90412 36.3833L4.14733 36.4003C4.14733 36.4003 4.14732 36.4003 4.13039 36.4003C3.28398 36.4003 2.48839 36.0785 1.87898 35.4691C1.26956 34.8597 0.947935 34.0642 0.931007 33.2178L0.914062 25.7185C0.914062 23.958 2.33603 22.5191 4.09655 22.5191L8.85334 22.5022C9.17497 21.5203 9.58122 20.5555 10.0383 19.6245L6.65266 16.2558C6.04325 15.6633 5.72162 14.8508 5.70469 14.0044C5.70469 13.158 6.02635 12.3453 6.63576 11.7529L11.9343 6.43742C12.5267 5.82801 13.3393 5.50648 14.1857 5.48956H14.2026C15.049 5.48956 15.8446 5.81106 16.454 6.42048L19.8397 9.78915C20.7707 9.31516 21.7187 8.92588 22.7005 8.58732L22.6836 3.83064C22.6836 2.07011 24.1055 0.631202 25.866 0.631202L33.3652 0.614258H33.3821C34.2285 0.614258 35.0242 0.935767 35.6336 1.54518C36.243 2.15459 36.5646 2.95034 36.5816 3.79675L36.5984 8.55343C37.5803 8.87507 38.5452 9.28146 39.4762 9.73852L42.8449 6.3529C43.4374 5.74349 44.25 5.42176 45.0964 5.40483H45.1133C45.9597 5.40483 46.7553 5.72655 47.3647 6.33596L52.6801 11.6345C53.2895 12.2269 53.6112 13.0394 53.6281 13.8858C53.6281 14.7322 53.3065 15.5447 52.6971 16.1372L49.3284 19.5228C49.8024 20.4538 50.1917 21.4019 50.5303 22.3838L55.2871 22.3668C57.0476 22.3668 58.4696 23.7888 58.4865 25.5493L58.5034 33.0485C58.5034 33.8949 58.1818 34.7074 57.5724 35.2999C56.963 35.9093 56.1673 36.2308 55.3209 36.2478L50.5641 36.2647C50.2425 37.2465 49.8362 38.2116 49.3792 39.1426L52.7648 42.5113C53.3742 43.1038 53.6958 43.9162 53.7128 44.7626C53.7128 45.609 53.3911 46.4217 52.7817 47.0142L47.4832 52.3294C46.8738 52.9389 46.0782 53.2606 45.2318 53.2775C44.3854 53.2775 43.5898 52.9558 42.9804 52.3464L39.5947 48.9777C38.6637 49.4517 37.7157 49.8412 36.7339 50.1797L36.7508 54.9534C36.7508 56.7139 35.3289 58.1528 33.5684 58.1528H26.0353Z" stroke="#58595B" stroke-width="0.2835" stroke-miterlimit="2.6131"/>
<path fill-rule="evenodd" clip-rule="evenodd" d="M29.7264 18.0331C29.7095 18.0331 29.7095 18.0331 29.6926 18.0331C23.4122 18.05 18.3169 23.1455 18.3338 29.392C18.3338 32.4221 19.5357 35.2491 21.7025 37.3989C23.8524 39.5319 26.6963 40.6998 29.7264 40.6998H29.7603C32.7904 40.6998 35.6513 39.498 37.8011 37.3481C39.951 35.1982 41.119 32.3543 41.119 29.3242C41.1021 23.0947 35.9898 18.0331 29.7264 18.0331ZM29.7264 41.8171C26.4085 41.8171 23.2599 40.5306 20.9069 38.1945C18.537 35.8415 17.2166 32.7268 17.2166 29.392C17.1996 22.5192 22.8029 16.916 29.7095 16.899H29.7433C36.6331 16.899 42.2532 22.4683 42.2701 29.3242C42.287 32.6421 40.9836 35.7737 38.6306 38.1437C36.2776 40.5136 33.129 41.8171 29.7941 41.8171C29.7433 41.8171 29.7264 41.8171 29.7264 41.8171ZM29.7264 12.8193C29.7095 12.8193 29.6926 12.8193 29.6756 12.8193C20.5006 12.8362 13.0692 20.2847 13.103 29.4089C13.1199 33.8272 14.8636 37.9746 18.0122 41.0893C21.1608 44.2041 25.3251 45.9307 29.7772 45.9138C34.2123 45.8969 38.3766 44.1702 41.5083 41.0385C44.64 37.9068 46.3667 33.7424 46.3498 29.3411C46.3159 20.2169 38.8676 12.8193 29.7264 12.8193ZM29.7264 47.0309C25.0035 47.0309 20.5683 45.2028 17.2166 41.8849C13.8479 38.5501 11.9858 34.1149 11.9689 29.4089C11.935 19.6583 19.8912 11.7189 29.6756 11.6851H29.7264C39.4939 11.6851 47.4501 19.5736 47.484 29.3073C47.5009 34.0133 45.6557 38.4654 42.304 41.8171C38.9522 45.1689 34.5002 47.014 29.7603 47.0309C29.7603 47.0309 29.7433 47.0309 29.7264 47.0309Z" fill="#58595B"/>
<path fill-rule="evenodd" clip-rule="evenodd" d="M24.8007 35.1988H21.9568C21.6013 35.1988 21.3135 34.911 21.3135 34.5555V25.3298C21.3135 24.9743 21.6013 24.6865 21.9568 24.6865H24.8007C25.2746 24.6865 25.664 25.0759 25.664 25.5499V34.3355C25.664 34.8094 25.2746 35.1988 24.8007 35.1988Z" fill="#DF283E"/>
<path fill-rule="evenodd" clip-rule="evenodd" d="M26.239 33.5903H26.8145V26.108H26.239V33.5903ZM26.933 34.7415H25.6634C25.3418 34.7415 25.0879 34.4874 25.0879 34.1658V25.5495V25.5325C25.0879 25.2109 25.3418 24.957 25.6634 24.957H26.933C27.5086 24.957 27.9656 25.4141 27.9656 25.9896V33.6918C27.9656 34.2673 27.4917 34.7415 26.933 34.7415Z" fill="#58595B"/>
<path fill-rule="evenodd" clip-rule="evenodd" d="M27.9649 32.2191C28.1849 32.2868 28.3542 32.4731 28.3881 32.7101C28.4558 33.3364 28.9806 33.8104 29.6069 33.8104H37.3769C37.4785 33.8104 37.5631 33.7258 37.5631 33.6243V32.9471C37.5631 32.8794 37.5292 32.8287 37.4954 32.8118C37.3092 32.6594 37.2076 32.4393 37.2076 32.1854C37.2076 31.9484 37.3092 31.7282 37.4954 31.5758C37.5123 31.5589 37.5631 31.5082 37.5631 31.4405V30.7633C37.5631 30.6956 37.5292 30.6449 37.4954 30.628C37.3092 30.4756 37.2076 30.2556 37.2076 30.0186C37.2076 29.7816 37.3092 29.5615 37.4954 29.4092C37.5123 29.3923 37.5631 29.3413 37.5631 29.2736V28.5967C37.5631 28.512 37.5124 28.4611 37.4785 28.4442C37.2923 28.3087 37.1737 28.1057 37.1737 27.8687C37.1737 27.6317 37.2923 27.4286 37.4954 27.2932C37.5123 27.2762 37.5631 27.2423 37.5631 27.1746V26.3451C37.5631 26.2605 37.4954 26.1928 37.4108 26.1928H32.7386C32.18 26.1928 31.7229 25.7358 31.7229 25.1772V22.4855C31.7229 21.656 31.0458 20.979 30.2163 20.979C30.1994 20.979 30.1994 20.9788 30.1825 20.9958C30.1656 21.0127 30.1655 21.0297 30.1655 21.0297V22.8241C30.1655 23.3489 30.0301 23.8737 29.7762 24.3308L28.4897 26.5991C28.422 26.7176 28.3881 26.836 28.3881 26.9714C28.3881 27.2254 28.2188 27.4625 27.9818 27.5302L27.9649 32.2191ZM37.36 34.9614H29.59C28.5405 34.9614 27.6602 34.3013 27.3385 33.3534C27.0338 33.3364 26.7969 33.0826 26.7969 32.7779V26.9714C26.7969 26.6837 27.0169 26.4467 27.2878 26.3959C27.3216 26.2605 27.3893 26.1251 27.457 26.0066L28.7436 23.7214C28.9129 23.4336 28.9975 23.1119 28.9975 22.7902V20.9958C28.9975 20.6741 29.116 20.3694 29.353 20.1494C29.573 19.9293 29.8778 19.7939 30.1994 19.7939C31.6552 19.7939 32.8571 20.996 32.8571 22.4518V24.991H37.3938C38.1048 24.991 38.6973 25.5664 38.6973 26.2943V27.1239C38.6973 27.3779 38.6296 27.6147 38.4941 27.8178C38.6296 28.021 38.6973 28.275 38.6973 28.5289V29.2061C38.6973 29.4769 38.6127 29.7477 38.4603 29.9677C38.6127 30.1878 38.6973 30.4586 38.6973 30.7294V31.4066C38.6973 31.6774 38.6127 31.9484 38.4603 32.1685C38.6127 32.3885 38.6973 32.6593 38.6973 32.9302V33.6073C38.6973 34.3522 38.1048 34.9614 37.36 34.9614Z" fill="#58595B"/>
</svg>
