<svg width="59" height="62" viewBox="0 0 59 62" fill="none" xmlns="http://www.w3.org/2000/svg">
<path fill-rule="evenodd" clip-rule="evenodd" d="M35.0842 8.22721H5.89456V6.18656H35.0842V8.22721ZM36.8587 5.29933C36.8587 4.80249 36.4683 4.41211 35.9715 4.41211H5.00734C4.5105 4.41211 4.12012 4.80249 4.12012 5.29933V9.11444C4.12012 9.61128 4.5105 10.0017 5.00734 10.0017H35.9715C36.4683 10.0017 36.8587 9.61128 36.8587 9.11444V5.29933Z" fill="#58595B"/>
<path fill-rule="evenodd" clip-rule="evenodd" d="M35.9719 12.0244H12.8687C12.3718 12.0244 11.9814 12.4148 11.9814 12.9116C11.9814 13.4085 12.3718 13.7989 12.8687 13.7989H35.9719C36.4688 13.7989 36.8592 13.4085 36.8592 12.9116C36.8592 12.4325 36.4688 12.0244 35.9719 12.0244Z" fill="#58595B"/>
<path fill-rule="evenodd" clip-rule="evenodd" d="M35.9719 15.8394H12.8687C12.3718 15.8394 11.9814 16.2297 11.9814 16.7266C11.9814 17.2234 12.3718 17.6138 12.8687 17.6138H35.9719C36.4688 17.6138 36.8592 17.2234 36.8592 16.7266C36.8592 16.2475 36.4688 15.8394 35.9719 15.8394Z" fill="#58595B"/>
<path fill-rule="evenodd" clip-rule="evenodd" d="M36.8592 24.3565C36.8592 23.8596 36.4688 23.4692 35.9719 23.4692H12.8687C12.3718 23.4692 11.9814 23.8596 11.9814 24.3565C11.9814 24.8533 12.3718 25.2437 12.8687 25.2437H35.9719C36.4688 25.2259 36.8592 24.8356 36.8592 24.3565Z" fill="#58595B"/>
<path fill-rule="evenodd" clip-rule="evenodd" d="M35.9719 19.6543H12.8687C12.3718 19.6543 11.9814 20.0447 11.9814 20.5415C11.9814 21.0384 12.3718 21.4287 12.8687 21.4287H35.9719C36.4688 21.4287 36.8592 21.0384 36.8592 20.5415C36.8592 20.0447 36.4688 19.6543 35.9719 19.6543Z" fill="#58595B"/>
<path fill-rule="evenodd" clip-rule="evenodd" d="M23.6395 31.9688C23.6395 31.4719 23.2491 31.0815 22.7523 31.0815H12.8687C12.3718 31.0815 11.9814 31.4719 11.9814 31.9688C11.9814 32.4656 12.3718 32.856 12.8687 32.856H22.7523C23.2491 32.856 23.6395 32.4656 23.6395 31.9688Z" fill="#58595B"/>
<path fill-rule="evenodd" clip-rule="evenodd" d="M26.1415 28.1538C26.1415 27.657 25.7511 27.2666 25.2543 27.2666H12.8687C12.3718 27.2666 11.9814 27.657 11.9814 28.1538C11.9814 28.6507 12.3718 29.041 12.8687 29.041H25.2543C25.7511 29.041 26.1415 28.6507 26.1415 28.1538Z" fill="#58595B"/>
<path fill-rule="evenodd" clip-rule="evenodd" d="M12.8687 40.4683H19.0615C19.5583 40.4683 19.9487 40.0779 19.9487 39.5811C19.9487 39.0842 19.5583 38.6938 19.0615 38.6938H12.8687C12.3718 38.6938 11.9814 39.0842 11.9814 39.5811C11.9814 40.0779 12.3896 40.4683 12.8687 40.4683Z" fill="#58595B"/>
<path fill-rule="evenodd" clip-rule="evenodd" d="M21.0134 35.7842C21.0134 35.2874 20.623 34.897 20.1261 34.897H12.8687C12.3718 34.897 11.9814 35.2874 11.9814 35.7842C11.9814 36.281 12.3718 36.6714 12.8687 36.6714H20.1261C20.623 36.6714 21.0134 36.2633 21.0134 35.7842Z" fill="#58595B"/>
<path fill-rule="evenodd" clip-rule="evenodd" d="M12.8687 48.0987H19.2922C19.789 48.0987 20.1794 47.7083 20.1794 47.2114C20.1794 46.7146 19.789 46.3242 19.2922 46.3242H12.8687C12.3718 46.3242 11.9814 46.7146 11.9814 47.2114C11.9814 47.7083 12.3896 48.0987 12.8687 48.0987Z" fill="#58595B"/>
<path fill-rule="evenodd" clip-rule="evenodd" d="M12.8687 44.2837H18.7066C19.2034 44.2837 19.5938 43.8933 19.5938 43.3965C19.5938 42.8997 19.2034 42.5093 18.7066 42.5093H12.8687C12.3718 42.5093 11.9814 42.8997 11.9814 43.3965C11.9814 43.8933 12.3896 44.2837 12.8687 44.2837Z" fill="#58595B"/>
<path fill-rule="evenodd" clip-rule="evenodd" d="M5.89456 13.7989H7.93522V15.8395H5.89456V13.7989ZM4.12012 16.7267C4.12012 17.2236 4.5105 17.614 5.00734 17.614H8.82244C9.31929 17.614 9.70967 17.2236 9.70967 16.7267V12.9116C9.70967 12.4148 9.31929 12.0244 8.82244 12.0244H5.00734C4.5105 12.0244 4.12012 12.4148 4.12012 12.9116V16.7267Z" fill="#58595B"/>
<path fill-rule="evenodd" clip-rule="evenodd" d="M5.89456 21.4287H7.93522V23.4692H5.89456V21.4287ZM4.12012 24.3564C4.12012 24.8533 4.5105 25.2436 5.00734 25.2436H8.82244C9.31929 25.2436 9.70967 24.8533 9.70967 24.3564V20.5415C9.70967 20.0447 9.31929 19.6543 8.82244 19.6543H5.00734C4.5105 19.6543 4.12012 20.0447 4.12012 20.5415V24.3564Z" fill="#58595B"/>
<path fill-rule="evenodd" clip-rule="evenodd" d="M5.89456 29.041H7.93522V31.0817H5.89456V29.041ZM4.12012 31.9689C4.12012 32.4658 4.5105 32.8562 5.00734 32.8562H8.82244C9.31929 32.8562 9.70967 32.4658 9.70967 31.9689V28.1538C9.70967 27.657 9.31929 27.2666 8.82244 27.2666H5.00734C4.5105 27.2666 4.12012 27.657 4.12012 28.1538V31.9689Z" fill="#58595B"/>
<path fill-rule="evenodd" clip-rule="evenodd" d="M5.89456 36.6714H7.93522V38.7121H5.89456V36.6714ZM4.12012 39.5993C4.12012 40.0961 4.5105 40.4865 5.00734 40.4865H8.82244C9.31929 40.4865 9.70967 40.0961 9.70967 39.5993V35.7842C9.70967 35.2874 9.31929 34.897 8.82244 34.897H5.00734C4.5105 34.897 4.12012 35.2874 4.12012 35.7842V39.5993Z" fill="#58595B"/>
<path fill-rule="evenodd" clip-rule="evenodd" d="M5.89456 44.2837H7.93522V46.3242H5.89456V44.2837ZM4.12012 47.2114C4.12012 47.7082 4.5105 48.0986 5.00734 48.0986H8.82244C9.31929 48.0986 9.70967 47.7082 9.70967 47.2114V43.3965C9.70967 42.8997 9.31929 42.5093 8.82244 42.5093H5.00734C4.5105 42.5093 4.12012 42.8997 4.12012 43.3965V47.2114Z" fill="#58595B"/>
<path fill-rule="evenodd" clip-rule="evenodd" d="M9.46261 59.1888V57.379H32.8676C34.1452 57.7161 35.4583 57.8934 36.7714 57.8934C39.2201 57.8934 41.6688 57.3079 43.8869 56.1368L46.2646 58.5145V59.1888H9.46261ZM5.89595 53.5817H26.1779C26.9764 54.3624 27.8636 55.0543 28.7686 55.6221H5.87825V53.5817H5.89595ZM27.3135 33.2464C29.922 30.6379 33.3644 29.3249 36.7891 29.3249C40.2138 29.3249 43.6562 30.6379 46.2646 33.2464C48.8021 35.7838 50.1862 39.1377 50.1862 42.7221C50.1862 46.3064 48.7843 49.6778 46.2646 52.1975C43.7272 54.735 40.3735 56.119 36.7891 56.119C33.2047 56.119 29.8333 54.7173 27.3135 52.1975C24.7761 49.6601 23.392 46.3064 23.392 42.7221C23.392 39.1554 24.7761 35.7838 27.3135 33.2464ZM40.6751 5.9376H42.7157V28.7394C42.0592 28.4555 41.3672 28.2248 40.6751 28.0473V5.9376ZM50.8782 52.996L47.4535 56.4207L47.0631 56.8111L45.4484 55.1963C46.1759 54.6817 46.868 54.1139 47.5245 53.4573C48.1633 52.8185 48.7488 52.1266 49.2634 51.3814L50.8782 52.996ZM57.7985 59.455L52.3687 54.0253L52.7591 53.6347C53.0962 53.2976 53.0962 52.7299 52.7591 52.3927L50.2216 49.8552C51.375 47.6903 51.9783 45.2595 51.9783 42.7398C51.9783 38.9425 50.5943 35.3579 48.0568 32.5721V26.8584C48.0568 26.3615 47.6664 25.9712 47.1696 25.9712C46.6728 25.9712 46.2824 26.3615 46.2824 26.8584V30.9042C45.7146 30.4428 45.1113 30.0348 44.4725 29.6622V9.53978H46.2824V22.7418C46.2824 23.2386 46.6728 23.629 47.1696 23.629C47.6664 23.629 48.0568 23.2386 48.0568 22.7418V8.65255C48.0568 8.15571 47.6664 7.76533 47.1696 7.76533H44.4902V5.06814C44.4902 4.57129 44.0998 4.18091 43.6029 4.18091H40.6751V1.50148C40.6751 1.00464 40.2847 0.614258 39.7879 0.614258H1.21144C0.714597 0.614258 0.324219 1.00464 0.324219 1.50148V7.28619C0.324219 7.78304 0.714597 8.17342 1.21144 8.17342C1.70829 8.17342 2.09867 7.78304 2.09867 7.28619V2.3887H38.9184V27.7279C38.2264 27.6391 37.5166 27.586 36.8068 27.586C32.7611 27.586 28.946 29.1652 26.0714 32.0221C23.1968 34.8967 21.6353 38.6939 21.6353 42.7574C21.6353 46.0756 22.7 49.2343 24.6519 51.8427H2.09867V11.4208C2.09867 10.9239 1.70829 10.5336 1.21144 10.5336C0.714597 10.5336 0.324219 10.9239 0.324219 11.4208V52.73C0.324219 53.2268 0.714597 53.6172 1.21144 53.6172H4.13927V56.5448C4.13927 57.0417 4.52965 57.4321 5.02649 57.4321H7.72363V60.1293C7.72363 60.6261 8.11401 61.0165 8.61085 61.0165H47.1696C47.6664 61.0165 48.0568 60.6261 48.0568 60.1293V58.3726L48.0746 58.3548L50.4878 60.768C50.6652 60.9455 50.8959 61.0343 51.1089 61.0343C51.3396 61.0343 51.5702 60.9455 51.7299 60.768C52.0671 60.4309 52.0671 59.8632 51.7299 59.526L49.3167 57.1128L51.0911 55.3383L56.5209 60.768C56.6984 60.9455 56.9113 61.0343 57.142 61.0343C57.3727 61.0343 57.5856 60.9455 57.763 60.768C58.1534 60.3599 58.1534 59.7921 57.7985 59.455Z" fill="#58595B"/>
<path fill-rule="evenodd" clip-rule="evenodd" d="M36.7871 54.0961C39.8214 54.0961 42.6783 52.9072 44.8254 50.7601C49.1018 46.4837 49.2793 39.6167 45.2513 35.1451C44.9319 34.7902 44.364 34.7547 44.0091 35.0741C43.6542 35.3935 43.6187 35.9614 43.9381 36.3163C47.3451 40.1136 47.1854 45.8982 43.5833 49.5003C41.7733 51.3103 39.3601 52.3039 36.8049 52.3039C34.2497 52.3039 31.8364 51.3103 30.0265 49.5003C28.2165 47.6904 27.2229 45.2772 27.2229 42.722C27.2229 40.1668 28.2165 37.7535 30.0265 35.9435C32.9011 33.0689 37.284 32.3238 40.9393 34.0627C41.3829 34.2757 41.9153 34.0805 42.1105 33.6369C42.3234 33.1933 42.1282 32.6609 41.6846 32.4657C37.355 30.4073 32.1558 31.2945 28.7666 34.6837C26.6196 36.8308 25.4307 39.6877 25.4307 42.722C25.4307 45.7563 26.6196 48.613 28.7666 50.7601C30.896 52.9072 33.7528 54.0961 36.7871 54.0961Z" fill="#58595B"/>
<path d="M7.93519 13.7988H5.89453V15.8395H7.93519V13.7988Z" fill="#DF283E"/>
<path d="M7.93519 21.4282H5.89453V23.4687H7.93519V21.4282Z" fill="#DF283E"/>
<path d="M7.93519 29.041H5.89453V31.0817H7.93519V29.041Z" fill="#DF283E"/>
<path d="M7.93519 36.6714H5.89453V38.712H7.93519V36.6714Z" fill="#DF283E"/>
<path d="M7.93519 44.2837H5.89453V46.3241H7.93519V44.2837Z" fill="#DF283E"/>
</svg>
