<?xml version="1.0" encoding="utf-8"?>
<!-- Generator: Adobe Illustrator 22.1.0, SVG Export Plug-In . SVG Version: 6.00 Build 0)  -->
<svg version="1.1" id="Layer_1" xmlns="http://www.w3.org/2000/svg" xmlns:xlink="http://www.w3.org/1999/xlink" x="0px" y="0px"
	 width="545.6px" height="170.9px" viewBox="0 0 545.6 170.9" style="enable-background:new 0 0 545.6 170.9;" xml:space="preserve"
	>
<style type="text/css">
	.st0{clip-path:url(#SVGID_2_);fill:#EA0029;}
	.st1{clip-path:url(#SVGID_2_);fill:#61A60E;}
	.st2{clip-path:url(#SVGID_2_);fill:#00A0DF;}
	.st3{clip-path:url(#SVGID_2_);}
</style>
<g>
	<g>
		<defs>
			<rect id="SVGID_1_" x="10.1" y="5.5" width="525.4" height="160"/>
		</defs>
		<clipPath id="SVGID_2_">
			<use xlink:href="#SVGID_1_"  style="overflow:visible;"/>
		</clipPath>
		<path class="st0" d="M46.2,5.5C66,10.3,83,30.6,83,54.7c0,50.2-47.4,59.4-47.4,88.9c0,3.1,0.3,5.4,1.2,8.3
			c-11.9-1.7-21.9-15.5-21.9-31.4c0-40.8,35.6-48.8,35.6-91.3C50.4,18.5,46.2,5.5,46.2,5.5"/>
		<path class="st1" d="M94.2,63.5c9.8,8.4,14.8,21.3,14.8,33.2c0,43-48.6,48.2-48.6,64.6c0,1.8,0.2,2.9,0.6,4.1
			c-7.7-2.9-13.6-11.8-13.6-20.1C47.4,119,87.6,112.3,94.2,63.5"/>
		<path class="st2" d="M22,19.1c0,0,2.4,4.2,2.4,8.9c0,15.1-14.2,20.8-14.2,36.2c0,7.2,3.9,13.2,9.5,16.6c0.2-1.3,0.3-2.5,0.6-3.6
			c3.3-10.6,19-22.4,19-39.1C39.1,28,30.8,19.8,22,19.1"/>
		<path class="st3" d="M151.6,139.7c6.9,6.2,13.4,9.9,22.8,9.9c5.2,0,14.7-2.2,14.7-9.1c0-4-3-6-8.9-7l-16.4-2.7
			c-14.6-2.3-22.6-10.1-22.6-21.7c0-19,15.4-26.9,32.2-26.9c13.1,0,25.9,5.3,34.8,15.2l-15,10.7c-5.2-6.3-12.8-10-21.1-10
			c-4.5,0-11.2,2.9-11.2,8c0,4.2,3.4,6.3,11,7.5l7.5,1.2c15.7,2.5,28.7,7.4,28.7,22.5c0,23.7-21.4,28.1-36.1,28.1
			c-13.4,0-26-4.3-36.7-16.1L151.6,139.7z"/>
		<path class="st3" d="M256.7,165.5c-25.1,0-39.9-19.5-39.9-41.7c0-22.1,14.7-41.6,39.9-41.6c25.1,0,39.9,19.5,39.9,41.6
			C296.6,146,281.8,165.5,256.7,165.5 M256.7,98.8c-11.5,0-20.2,7.3-20.2,25c0,11.5,4.7,25,20.2,25c14.6,0,20.2-12.8,20.2-25
			C276.8,111.4,271.3,98.8,256.7,98.8"/>
		<path class="st3" d="M361,110.7c-2.8-7.3-9.5-11.9-16.4-11.9c-10.9,0-19.5,7.3-19.5,25c0,11.5,4.6,25,20.2,25
			c5.3,0,13.1-4,16.2-11.1l15.6,7.5c-6.8,12.3-18.5,20.2-31.8,20.2c-25.1,0-39.9-19.5-39.9-41.7c0-22.1,13.7-41.6,38.3-41.6
			c15.5,0,25.7,7.5,33,20.6L361,110.7z"/>
		<path class="st3" d="M407.7,84.4h20.4l29.8,78.8h-21.2l-4-12.4h-29.1l-4,12.4h-21L407.7,84.4z M428,136.2l-9.7-32.6H418l-9.7,32.6
			H428z"/>
		<path class="st3" d="M465.7,84.4h39.4c17.7,0,28.6,8.2,28.6,25.9c0,10.2-6.4,18.4-16.3,21.3l18.1,31.7h-22L498,134.9h-12.5v28.4
			h-19.7V84.4z M485.4,120.3h18c6.3-0.1,10.5-3.3,10.5-10.6c0-7.3-4.2-10.5-10.5-10.6h-18V120.3z"/>
	</g>
</g>
</svg>
