<svg width="31" height="31" viewBox="0 0 31 31" fill="none" xmlns="http://www.w3.org/2000/svg">
<path d="M0.566406 13.2417C0.566406 20.276 6.27418 26.0001 13.3333 26.0001V24.3675C7.18178 24.3675 2.20008 19.3891 2.20008 13.2417H0.566406ZM13.3333 0.483398C6.27418 0.483398 0.566406 6.18737 0.566406 13.2417H2.20008C2.20008 7.09436 7.18178 2.11598 13.3333 2.11598V0.483398ZM26.08 13.2417C26.08 6.18737 20.3722 0.483398 13.3333 0.483398V2.11598C19.4848 2.11598 24.4665 7.09436 24.4665 13.2417H26.08ZM13.3333 25.9799C20.3722 25.9799 26.1001 20.276 26.1001 13.2216H24.4665C24.4665 19.369 19.4848 24.3473 13.3333 24.3473V25.9799Z" fill="#231F20"/>
<path d="M22.3349 21.1242L21.1797 22.2786L29.6224 30.7157L30.7776 29.5613L22.3349 21.1242Z" fill="#231F20"/>
<path d="M7.48524 13.3021C7.48524 10.0772 10.1072 7.45705 13.3342 7.45705V5.82446C9.19959 5.82446 5.85156 9.17025 5.85156 13.3021H7.48524V13.3021Z" fill="#231F20"/>
</svg>
