<svg width="65" height="74" viewBox="0 0 65 74" fill="none" xmlns="http://www.w3.org/2000/svg">
<path d="M33.1712 8.32878C33.7843 8.32878 34.2761 7.83675 34.2761 7.22383V1.46824C34.2761 0.855312 33.7843 0.363281 33.1712 0.363281C32.5582 0.363281 32.0664 0.855312 32.0664 1.46824V7.22383C32.0664 7.83675 32.5582 8.32878 33.1712 8.32878Z" fill="#58595B" stroke="#58595B" stroke-width="0.5"/>
<path d="M57.1621 30.0034H62.918C63.5309 30.0034 64.0227 29.5116 64.0227 28.8987C64.0227 28.2857 63.5309 27.7939 62.918 27.7939H57.1621C56.5509 27.7939 56.06 28.283 56.0573 28.8937C56.0351 29.5212 56.5604 30.0034 57.1621 30.0034Z" fill="#58595B" stroke="#58595B" stroke-width="0.5"/>
<path d="M7.83125 27.7754H2.07554C1.46262 27.7754 0.970703 28.2671 0.970703 28.8801C0.970703 29.493 1.46253 29.9851 2.07554 29.9851H7.83125C8.44426 29.9851 8.93609 29.493 8.93609 28.8801C8.93609 28.2671 8.44417 27.7754 7.83125 27.7754Z" fill="#58595B" stroke="#58595B" stroke-width="0.5"/>
<path d="M53.5011 7.86385C53.0616 7.42429 52.3714 7.42429 51.9318 7.86385L47.4488 12.3469C47.013 12.7827 47.0047 13.4941 47.4513 13.9187C47.891 14.3557 48.5794 14.3549 49.0181 13.9162L53.4988 9.43553C53.9453 9.01091 53.9369 8.29962 53.5011 7.86385Z" fill="#58595B" stroke="#58595B" stroke-width="0.5"/>
<path d="M13.0611 7.8828L13.0612 7.88273L13.056 7.87783C12.6177 7.4639 11.9352 7.4639 11.4969 7.87783L11.4968 7.87775L11.4918 7.8828C11.0522 8.32236 11.0522 9.01257 11.4918 9.45212L15.97 13.9304C16.1814 14.164 16.4831 14.2553 16.7594 14.2553C17.2003 14.2553 17.616 13.9874 17.7884 13.5686C17.9607 13.1502 17.8608 12.6825 17.5441 12.3658L13.0611 7.8828Z" fill="#58595B" stroke="#58595B" stroke-width="0.5"/>
<path d="M19.9618 46.5848L19.9617 46.5847C14.3315 41.4268 12.4608 33.3402 15.2194 26.217C17.9969 19.094 24.8364 14.4273 32.4695 14.4273H32.4698H32.4701H32.4705H32.4708H32.4712H32.4715H32.4718H32.4722H32.4725H32.4728H32.4732H32.4735H32.4738H32.4742H32.4745H32.4748H32.4752H32.4755H32.4758H32.4762H32.4765H32.4768H32.4772H32.4775H32.4778H32.4782H32.4785H32.4788H32.4792H32.4795H32.4798H32.4802H32.4805H32.4808H32.4812H32.4815H32.4818H32.4822H32.4825H32.4828H32.4832H32.4835H32.4838H32.4842H32.4845H32.4848H32.4852H32.4855H32.4858H32.4862H32.4865H32.4868H32.4872H32.4875H32.4878H32.4882H32.4885H32.4888H32.4892H32.4895H32.4898H32.4902H32.4905H32.4909H32.4912H32.4915H32.4919H32.4922H32.4925H32.4929H32.4932H32.4935H32.4939H32.4942H32.4945H32.4949H32.4952H32.4955H32.4959H32.4962H32.4965H32.4969H32.4972H32.4975H32.4979H32.4982H32.4985H32.4989H32.4992H32.4995H32.4999H32.5002H32.5005H32.5009H32.5012H32.5015H32.5019H32.5022H32.5025H32.5029H32.5032H32.5035H32.5039H32.5042H32.5045H32.5049H32.5052H32.5055H32.5059H32.5062H32.5065H32.5069H32.5072H32.5075H32.5079H32.5082H32.5085H32.5089H32.5092H32.5095H32.5099H32.5102H32.5105H32.5109H32.5112H32.5115H32.5119H32.5122H32.5125H32.5129H32.5132H32.5135H32.5139H32.5142H32.5145H32.5149H32.5152H32.5156H32.5159H32.5162H32.5166H32.5169H32.5172H32.5176H32.5179H32.5182H32.5186H32.5189H32.5192H32.5196H32.5199H32.5202H32.5206H32.5209H32.5212H32.5216H32.5219H32.5222H32.5226H32.5229H32.5232H32.5236H32.5239H32.5242H32.5246H32.5249H32.5252H32.5256H32.5259H32.5262H32.5266H32.5269H32.5272H32.5276H32.5279H32.5282H32.5286H32.5289H32.5292H32.5296H32.5299H32.5302H32.5306H32.5309H32.5312H32.5316H32.5319H32.5322H32.5326H32.5329H32.5332H32.5336H32.5339H32.5342H32.5346H32.5349H32.5352H32.5356H32.5359H32.5362H32.5366H32.5369H32.5372H32.5376H32.5379H32.5382H32.5386H32.5389H32.5392H32.5396H32.5399H32.5402H32.5406H32.5409H32.5412H32.5416H32.5419H32.5422H32.5426H32.5429H32.5433H32.5436H32.5439H32.5443H32.5446H32.5449H32.5453H32.5456H32.5459H32.5463H32.5466H32.5469H32.5473H32.5476H32.5479H32.5483H32.5486H32.5489H32.5493H32.5496H32.5499H32.5503H32.5506H32.5509H32.5513H32.5516H32.5519H32.5523H32.5526H32.5529H32.5533H32.5536H32.5539H32.5543H32.5546H32.5549H32.5553H32.5556H32.5559H32.5563H32.5566H32.5569H32.5573H32.5576H32.5579H32.5583H32.5586H32.5589H32.5593H32.5596H32.5599H32.5603H32.5606H32.5609H32.5613H32.5616H32.5619H32.5623H32.5626H32.5629H32.5633H32.5636H32.5639H32.5643H32.5646H32.5649H32.5653H32.5656H32.5659H32.5663H32.5666H32.5669H32.5673H32.5676H32.5679H32.5683H32.5686H32.5689H32.5693H32.5696H32.57H32.5703H32.5706H32.5709H32.5713H32.5716H32.572H32.5723H32.5726H32.573H32.5733H32.5736H32.574H32.5743H32.5746H32.575H32.5753H32.5756H32.576H32.5763H32.5766H32.577H32.5773H32.5776H32.578H32.5783H32.5786H32.579H32.5793H32.5796H32.58H32.5803H32.5806H32.581H32.5813H32.5816H32.582H32.5823H32.5826H32.583H32.5833H32.5836H32.584H32.5843H32.5846H32.585H32.5853H32.5856H32.586H32.5863H32.5866H32.587H32.5873H32.5876H32.588H32.5883H32.5886H32.589H32.5893H32.5896H32.59H32.5903H32.5906H32.591H32.5913H32.5916H32.592H32.5923H32.5926H32.593H32.5933H32.5936H32.594H32.5943H32.5946H32.595H32.5953H32.5956H32.596H32.5963H32.5966H32.597H32.5973H32.5977H32.598H32.5983H32.5987H32.599H32.5993H32.5997H32.6H32.6003H32.6007H32.601H32.6013H32.6017H32.602H32.6023H32.6027H32.603H32.6033H32.6037H32.604H32.6043H32.6047H32.605H32.6053H32.6057H32.606H32.6063H32.6067H32.607H32.6073H32.6077H32.608H32.6083H32.6087H32.609H32.6093H32.6097H32.61H32.6103H32.6107H32.611H32.6113H32.6117H32.612H32.6123H32.6127H32.613H32.6133H32.6137H32.614H32.6143H32.6147H32.615H32.6153H32.6157H32.616H32.6163H32.6167H32.617H32.6173H32.6177H32.618H32.6183H32.6187H32.619H32.6193H32.6197H32.62H32.6203H32.6207H32.621H32.6213H32.6217H32.622H32.6224H32.6227H32.623H32.6234H32.6237H32.624H32.6244H32.6247H32.625H32.6254H32.6257H32.626H32.6264H32.6267H32.627H32.6274H32.6277H32.628H32.6284H32.6287H32.629H32.6294H32.6297H32.63H32.6304H32.6307H32.631H32.6314H32.6317H32.632H32.6324H32.6327H32.633H32.6334H32.6337H32.634H32.6344H32.6347H32.635H32.6354H32.6357H32.636H32.6364H32.6367H32.637H32.6374H32.6377H32.638H32.6384H32.6387H32.639H32.6394H32.6397H32.6399C40.2162 14.5031 46.9801 19.1699 49.7386 26.2361C52.4781 33.3024 50.6454 41.3132 45.0906 46.4902C42.2832 49.089 40.5862 52.6472 40.2978 56.4552H24.6245C24.4287 52.6841 22.75 49.1453 19.9618 46.5848ZM46.4045 47.9094L46.4048 47.9092C52.5133 42.2016 54.5367 33.3443 51.5206 25.5559L51.5205 25.5557C48.4854 17.7674 41.0216 12.5941 32.6605 12.4986L32.6605 12.4986H32.6594H32.6591H32.6587H32.6584H32.6581H32.6577H32.6574H32.657H32.6567H32.6564H32.656H32.6557H32.6554H32.655H32.6547H32.6543H32.654H32.6537H32.6533H32.653H32.6526H32.6523H32.6519H32.6516H32.6513H32.6509H32.6506H32.6502H32.6499H32.6495H32.6492H32.6488H32.6485H32.6481H32.6478H32.6475H32.6471H32.6468H32.6464H32.6461H32.6457H32.6454H32.645H32.6447H32.6443H32.644H32.6436H32.6433H32.6429H32.6425H32.6422H32.6418H32.6415H32.6411H32.6408H32.6404H32.6401H32.6397H32.6394H32.639H32.6386H32.6383H32.6379H32.6376H32.6372H32.6369H32.6365H32.6361H32.6358H32.6354H32.6351H32.6347H32.6343H32.634H32.6336H32.6333H32.6329H32.6325H32.6322H32.6318H32.6314H32.6311H32.6307H32.6303H32.63H32.6296H32.6293H32.6289H32.6285H32.6282H32.6278H32.6274H32.6271H32.6267H32.6263H32.626H32.6256H32.6252H32.6249H32.6245H32.6241H32.6237H32.6234H32.623H32.6226H32.6223H32.6219H32.6215H32.6212H32.6208H32.6204H32.62H32.6197H32.6193H32.6189H32.6186H32.6182H32.6178H32.6174H32.6171H32.6167H32.6163H32.6159H32.6156H32.6152H32.6148H32.6144H32.6141H32.6137H32.6133H32.6129H32.6126H32.6122H32.6118H32.6114H32.6111H32.6107H32.6103H32.6099H32.6096H32.6092H32.6088H32.6084H32.608H32.6077H32.6073H32.6069H32.6065H32.6061H32.6058H32.6054H32.605H32.6046H32.6042H32.6039H32.6035H32.6031H32.6027H32.6023H32.602H32.6016H32.6012H32.6008H32.6004H32.6H32.5997H32.5993H32.5989H32.5985H32.5981H32.5977H32.5974H32.597H32.5966H32.5962H32.5958H32.5954H32.5951H32.5947H32.5943H32.5939H32.5935H32.5931H32.5928H32.5924H32.592H32.5916H32.5912H32.5908H32.5904H32.5901H32.5897H32.5893H32.5889H32.5885H32.5881H32.5877H32.5874H32.587H32.5866H32.5862H32.5858H32.5854H32.585H32.5847H32.5843H32.5839H32.5835H32.5831H32.5827H32.5823H32.5819H32.5815H32.5812H32.5808H32.5804H32.58H32.5796H32.5792H32.5788H32.5784H32.5781H32.5777H32.5773H32.5769H32.5765H32.5761H32.5757H32.5753H32.5749H32.5746H32.5742H32.5738H32.5734H32.573H32.5726H32.5722H32.5718H32.5714H32.5711H32.5707H32.5703H32.5699H32.5695H32.5691H32.5687H32.5683H32.5679H32.5676H32.5672H32.5668H32.5664H32.566H32.5656H32.5652H32.5648H32.5644H32.564H32.5637H32.5633H32.5629H32.5625H32.5621H32.5617H32.5613H32.5609H32.5605H32.5602H32.5598H32.5594H32.559H32.5586H32.5582H32.5578H32.5574H32.557H32.5567H32.5563H32.5559H32.5555H32.5551H32.5547H32.5543H32.5539H32.5535H32.5532H32.5528H32.5524H32.552H32.5516H32.5512H32.5508H32.5504H32.55H32.5497H32.5493H32.5489H32.5485H32.5481H32.5477H32.5473H32.5469H32.5466H32.5462H32.5458H32.5454H32.545H32.5446H32.5442H32.5438H32.5435H32.5431H32.5427H32.5423H32.5419H32.5415H32.5411H32.5407H32.5404H32.54H32.5396H32.5392H32.5388H32.5384H32.538H32.5377H32.5373H32.5369H32.5365H32.5361H32.5357H32.5354H32.535H32.5346H32.5342H32.5338H32.5334H32.533H32.5327H32.5323H32.5319H32.5315H32.5311H32.5307H32.5304H32.53H32.5296H32.5292H32.5288H32.5285H32.5281H32.5277H32.5273H32.5269H32.5265H32.5262H32.5258H32.5254H32.525H32.5246H32.5243H32.5239H32.5235H32.5231H32.5227H32.5224H32.522H32.5216H32.5212H32.5208H32.5205H32.5201H32.5197H32.5193H32.5189H32.5186H32.5182H32.5178H32.5174H32.5171H32.5167H32.5163H32.5159H32.5156H32.5152H32.5148H32.5144H32.5141H32.5137H32.5133H32.5129H32.5126H32.5122H32.5118H32.5114H32.5111H32.5107H32.5103H32.5099H32.5096H32.5092H32.5088H32.5085H32.5081H32.5077H32.5073H32.507H32.5066H32.5062H32.5059H32.5055H32.5051H32.5048H32.5044H32.504H32.5037H32.5033H32.5029H32.5026H32.5022H32.5018H32.5015H32.5011H32.5007H32.5004H32.5H32.4996H32.4993H32.4989H32.4985H32.4982H32.4978H32.4974H32.4971H32.4967H32.4964H32.496H32.4956H32.4953H32.4949H32.4945H32.4942H32.4938H32.4935H32.4931H32.4927H32.4924H32.492H32.4917H32.4913H32.491H32.4906H32.4902H32.4899H32.4895H32.4892H32.4888H32.4885H32.4881H32.4877H32.4874H32.487H32.4867H32.4863H32.486H32.4856H32.4853H32.4849H32.4846H32.4842H32.4839H32.4835H32.4832H32.4828H32.4825H32.4821H32.4818H32.4814H32.4811H32.4807H32.4804H32.48H32.4797H32.4793H32.479H32.4787H32.4783H32.478H32.4776H32.4773H32.4769H32.4766H32.4762H32.4759H32.4756H32.4752H32.4749H32.4745H32.4742H32.4739H32.4735H32.4732H32.4728H32.4725H32.4722H32.4718H32.4715H32.4712H32.4708H32.4705H32.4702H32.4698H32.4695C24.0321 12.4986 16.4726 17.6719 13.4183 25.5177C10.364 33.3634 12.4447 42.2971 18.6486 47.9857C21.2686 50.4173 22.7574 53.8287 22.7385 57.4097V57.4102V67.1361C22.7385 69.3189 24.5119 71.0921 26.6946 71.0921H31.4956V72.7208H31.4953L31.4959 72.7284C31.5373 73.266 31.9532 73.7135 32.4885 73.7135C33.0186 73.7135 33.4432 73.2889 33.4432 72.7588V71.1301H38.2442C40.427 71.1301 42.2004 69.3567 42.2004 67.1739L42.2004 57.4297C42.2004 57.4296 42.2004 57.4295 42.2004 57.4294C42.2194 53.8103 43.7461 50.3793 46.4045 47.9094ZM24.6861 67.1551V66.837H34.9579C35.4881 66.837 35.9128 66.4124 35.9128 65.8823C35.9128 65.3521 35.4881 64.9276 34.9579 64.9276H24.6861V62.5629H27.1695C27.6997 62.5629 28.1244 62.1383 28.1244 61.6082C28.1244 61.0781 27.6997 60.6535 27.1695 60.6535H24.6861V58.4219H40.2908V60.6535H30.2659C29.7358 60.6535 29.3112 61.0781 29.3112 61.6082C29.3112 62.1383 29.7358 62.5629 30.2659 62.5629H40.2908V64.9276H38.0543C37.5242 64.9276 37.0994 65.3521 37.0994 65.8823C37.0994 66.4124 37.5242 66.837 38.0543 66.837H40.2908V67.1551C40.2908 68.2776 39.3857 69.1826 38.2632 69.1826H26.7327C25.5906 69.1826 24.6861 68.277 24.6861 67.1551Z" fill="#58595B" stroke="#58595B" stroke-width="0.2"/>
<path d="M19.2678 30.0534H32.4233C31.5963 30.1809 30.8289 30.3492 30.1644 30.5582C29.4393 30.7863 28.8269 31.0659 28.3927 31.4012C27.958 31.7369 27.6849 32.1428 27.6849 32.6199V34.2744H19.2678C19.1037 34.2744 18.9619 34.1327 18.9619 33.9686V30.3595C18.9619 30.1953 19.1037 30.0534 19.2678 30.0534ZM36.459 34.3315C33.9913 34.3315 32.0919 34.0336 30.8139 33.6631C30.1741 33.4776 29.6952 33.2754 29.3797 33.0866C29.2216 32.992 29.11 32.904 29.0398 32.8276C28.9672 32.7485 28.9537 32.6983 28.9537 32.677C28.9537 32.6556 28.9672 32.6054 29.0398 32.5263C29.11 32.4499 29.2216 32.3619 29.3797 32.2672C29.6952 32.0784 30.1741 31.8762 30.8139 31.6907C32.0919 31.3202 33.9913 31.0222 36.459 31.0222C38.9268 31.0222 40.8262 31.3202 42.1042 31.6907C42.744 31.8762 43.223 32.0784 43.5385 32.2672C43.6966 32.3619 43.8082 32.4499 43.8784 32.5263C43.951 32.6055 43.9645 32.6556 43.9645 32.677C43.9645 32.6983 43.951 32.7485 43.8784 32.8276C43.8082 32.904 43.6966 32.992 43.5385 33.0866C43.223 33.2754 42.744 33.4776 42.1042 33.6631C40.8262 34.0336 38.9268 34.3315 36.459 34.3315ZM43.9645 37.198C43.9645 37.2193 43.951 37.2695 43.8784 37.3486C43.8082 37.4251 43.6966 37.5131 43.5385 37.6077C43.223 37.7965 42.744 37.9987 42.1042 38.1841C40.8262 38.5546 38.9268 38.8525 36.459 38.8525C33.9913 38.8525 32.0919 38.5546 30.8139 38.1841C30.1741 37.9987 29.6952 37.7965 29.3797 37.6077C29.2216 37.5131 29.11 37.4251 29.0398 37.3486C28.9672 37.2695 28.9537 37.2193 28.9537 37.198V34.2323C29.7142 34.6538 30.786 34.9691 32.0069 35.1848C33.361 35.424 34.9133 35.5433 36.459 35.5433C38.0051 35.5433 39.5575 35.4192 40.9115 35.1776C42.133 34.9597 43.2046 34.644 43.9645 34.2299V37.198ZM43.9645 41.7C43.9645 41.7214 43.951 41.7715 43.8784 41.8507C43.8082 41.9271 43.6966 42.0151 43.5385 42.1097C43.223 42.2985 42.744 42.5007 42.1042 42.6862C40.8262 43.0567 38.9268 43.3545 36.459 43.3545C33.9913 43.3545 32.0919 43.0567 30.8139 42.6862C30.1741 42.5007 29.6952 42.2985 29.3797 42.1097C29.2216 42.0151 29.11 41.9271 29.0398 41.8507C28.9672 41.7715 28.9537 41.7214 28.9537 41.7V38.7344C29.7142 39.1558 30.786 39.4711 32.0069 39.6868C33.361 39.9261 34.9133 40.0453 36.459 40.0453C38.0051 40.0453 39.5575 39.9213 40.9115 39.6796C42.133 39.4617 43.2046 39.146 43.9645 38.7319V41.7ZM43.9645 46.2021C43.9645 46.2234 43.951 46.2736 43.8784 46.3527C43.8082 46.4291 43.6966 46.5171 43.5385 46.6117C43.223 46.8005 42.744 47.0027 42.1042 47.1882C40.8262 47.5587 38.9268 47.8566 36.459 47.8566C33.9913 47.8566 32.0919 47.5587 30.8139 47.1882C30.1741 47.0027 29.6952 46.8005 29.3797 46.6117C29.2216 46.5171 29.11 46.4291 29.0398 46.3527C28.9672 46.2736 28.9537 46.2234 28.9537 46.2021V43.2364C29.7142 43.6578 30.786 43.9731 32.0069 44.1888C33.361 44.4281 34.9133 44.5473 36.459 44.5473C38.0051 44.5473 39.5575 44.4233 40.9115 44.1817C42.133 43.9637 43.2046 43.6481 43.9645 43.2339V46.2021ZM27.476 36.0412H23.274V35.4484H27.476V36.0412ZM20.5575 36.0412V35.4484H22.0621V36.0412H20.5575ZM27.6279 41.6071H19.2107C19.0467 41.6071 18.9048 41.4652 18.9048 41.301V37.6919C18.9048 37.5278 19.0466 37.386 19.2107 37.386H27.6279V41.6071ZM22.3661 28.344V28.9367H20.8615V28.344H22.3661ZM31.3892 28.344V28.9367H23.5779V28.344H31.3892ZM34.0866 28.344V28.9367H32.5819V28.344H34.0866ZM19.3058 27.0371C19.1417 27.0371 18.9999 26.8953 18.9999 26.7312V23.122C18.9999 22.9579 19.1417 22.8161 19.3058 22.8161H35.5283C35.6924 22.8161 35.8341 22.9579 35.8341 23.122V26.7312C35.8341 26.8953 35.6924 27.0371 35.5283 27.0371H19.3058ZM36.9045 29.831C36.6687 29.276 36.127 28.9177 35.5283 28.9177H35.2224V28.3249H35.5283C36.352 28.3249 37.027 27.6497 37.027 26.8261V23.217C37.027 22.3934 36.352 21.7182 35.5283 21.7182H19.3058C18.4821 21.7182 17.807 22.3934 17.807 23.217V26.8261C17.807 27.6497 18.4821 28.3249 19.3058 28.3249H19.6117V28.9177H19.3058C18.4821 28.9177 17.807 29.5926 17.807 30.4163V34.0256C17.807 34.8493 18.4821 35.5242 19.3058 35.5242H19.6117V36.1172H19.3058C18.4821 36.1172 17.807 36.7922 17.807 37.6159V41.2251C17.807 42.0488 18.4821 42.7238 19.3058 42.7238H27.723V46.183C27.723 46.6977 28.0353 47.129 28.5259 47.4798C29.0169 47.8309 29.7077 48.1181 30.5204 48.3458C32.1477 48.8019 34.3041 49.0305 36.44 49.0305C38.5762 49.0305 40.7327 48.7971 42.3599 48.3387C43.1726 48.1097 43.8633 47.8219 44.354 47.4719C44.8442 47.1224 45.1572 46.6934 45.1572 46.183V32.658C45.1572 32.1678 44.8611 31.7532 44.3958 31.4131C43.9302 31.0727 43.274 30.79 42.4993 30.5622C40.9733 30.1133 38.949 29.8662 36.9045 29.831Z" fill="#58595B" stroke="#58595B" stroke-width="0.3"/>
<path d="M36.9745 36.7417V36.6417H36.8745H35.9824H35.8824V36.7417V37.6337V37.7337H35.9824H36.8745H36.9745V37.6337V36.7417Z" fill="#58595B" stroke="#58595B" stroke-width="0.2"/>
<path d="M36.9745 41.6997V41.5997H36.8745H35.9824H35.8824V41.6997V42.5917V42.6917H35.9824H36.8745H36.9745V42.5917V41.6997Z" fill="#58595B" stroke="#58595B" stroke-width="0.2"/>
<path d="M36.9745 45.7651V45.6651H36.8745H35.9824H35.8824V45.7651V46.6571V46.7571H35.9824H36.8745H36.9745V46.6571V45.7651Z" fill="#58595B" stroke="#58595B" stroke-width="0.2"/>
<path fill-rule="evenodd" clip-rule="evenodd" d="M22.0222 33.1327H21.1294V32.24H22.0222V33.1327ZM22.0222 30.8721H20.2176C19.9707 30.8721 19.7617 31.081 19.7617 31.328V33.1327C19.7617 33.3797 19.9707 33.5886 20.2176 33.5886H22.0222C22.2692 33.5886 22.4781 33.3797 22.4781 33.1327V31.328C22.4591 31.081 22.2692 30.8721 22.0222 30.8721Z" fill="#58595B"/>
<path fill-rule="evenodd" clip-rule="evenodd" d="M25.6101 33.1327H24.7173V32.24H25.6101V33.1327ZM25.6101 30.8721H23.8055C23.5585 30.8721 23.3496 31.081 23.3496 31.328V33.1327C23.3496 33.3797 23.5585 33.5886 23.8055 33.5886H25.6101C25.8571 33.5886 26.066 33.3797 26.066 33.1327V31.328C26.066 31.081 25.8761 30.8721 25.6101 30.8721Z" fill="#58595B"/>
<path fill-rule="evenodd" clip-rule="evenodd" d="M22.0222 25.9147H21.1294V25.022H22.0222V25.9147ZM22.0222 23.6733H20.2176C19.9707 23.6733 19.7617 23.8823 19.7617 24.1292V25.9337C19.7617 26.1807 19.9707 26.3896 20.2176 26.3896H22.0222C22.2692 26.3896 22.4781 26.1807 22.4781 25.9337V24.1292C22.4591 23.8633 22.2692 23.6733 22.0222 23.6733Z" fill="#58595B"/>
<path fill-rule="evenodd" clip-rule="evenodd" d="M25.6101 25.9147H24.7173V25.022H25.6101V25.9147ZM25.6101 23.6733H23.8055C23.5585 23.6733 23.3496 23.8823 23.3496 24.1292V25.9337C23.3496 26.1807 23.5585 26.3896 23.8055 26.3896H25.6101C25.8571 26.3896 26.066 26.1807 26.066 25.9337V24.1292C26.066 23.8633 25.8761 23.6733 25.6101 23.6733Z" fill="#58595B"/>
<path d="M33.2862 23.6733H26.9795V24.5661H33.2862V23.6733Z" fill="#58595B"/>
<path d="M35.0718 23.6733H34.1797V24.5653H35.0718V23.6733Z" fill="#58595B"/>
<path d="M33.2862 25.4771H26.9795V26.3698H33.2862V25.4771Z" fill="#58595B"/>
<path d="M35.0718 25.4771H34.1797V26.369H35.0718V25.4771Z" fill="#58595B"/>
<path fill-rule="evenodd" clip-rule="evenodd" d="M22.0222 40.3512H21.1294V39.4585H22.0222V40.3512ZM22.0222 38.0908H20.2176C19.9707 38.0908 19.7617 38.2998 19.7617 38.5467V40.3512C19.7617 40.5982 19.9707 40.8073 20.2176 40.8073H22.0222C22.2692 40.8073 22.4781 40.5982 22.4781 40.3512V38.5467C22.4591 38.2998 22.2692 38.0908 22.0222 38.0908Z" fill="#58595B"/>
<path fill-rule="evenodd" clip-rule="evenodd" d="M25.6101 40.3512H24.7173V39.4585H25.6101V40.3512ZM25.6101 38.0908H23.8055C23.5585 38.0908 23.3496 38.2998 23.3496 38.5467V40.3512C23.3496 40.5982 23.5585 40.8073 23.8055 40.8073H25.6101C25.8571 40.8073 26.066 40.5982 26.066 40.3512V38.5467C26.066 38.2998 25.8761 38.0908 25.6101 38.0908Z" fill="#58595B"/>
</svg>
