<svg width="56" height="64" viewBox="0 0 56 64" fill="none" xmlns="http://www.w3.org/2000/svg">
<path d="M28 2.5C42.0987 2.5 53.5 13.8525 53.5 27.822C53.5 35.7729 49.7797 41.4544 44.4217 46.6503C41.7868 49.2056 38.8208 51.5808 35.7398 54.0482L35.4945 54.2446C32.9869 56.253 30.4089 58.3258 28 60.5437C25.5911 58.3258 23.0131 56.253 20.5055 54.2446L20.2603 54.0482C17.1793 51.5809 14.2132 49.2056 11.5783 46.6503C6.22031 41.4544 2.5 35.7729 2.5 27.822C2.5 13.8525 13.9013 2.5 28 2.5Z" fill="white" stroke="#DF283E" stroke-width="5"/>
<path d="M25.9167 12.9102C25.9167 12.9102 26.9479 16.049 26.8306 18.1594C26.7182 20.2699 26.3712 21.8686 26.0877 22.6094C25.8043 23.3502 25.1738 24.6077 24.7143 25.4071C24.2549 26.2064 22.7105 28.3168 22.7105 28.3168C22.7105 28.3168 21.3957 30.1446 20.7066 31.3387C20.0223 32.5377 19.2745 34.614 19.1621 35.9983C19.0497 37.3825 18.991 37.8991 19.1621 39.1517C19.3332 40.4092 20.1201 42.2467 21.2198 43.3141C22.5687 44.6252 23.8737 44.6252 23.8737 44.6252C23.8737 44.6252 23.5658 43.9429 23.5658 42.7975C23.5658 41.657 23.9665 40.7455 24.3087 40.0583C24.6508 39.3759 25.7945 37.8894 26.425 37.207C27.0555 36.5246 28.7123 34.926 28.7123 34.926C28.7123 34.926 29.9147 33.6149 30.3692 33.0982C30.8286 32.5865 31.7426 31.329 32.1434 30.476C32.5442 29.6182 33.2284 28.2486 33.4581 27.3372C33.6878 26.4257 33.8589 24.8856 33.8589 23.6281C33.8589 22.3706 33.7465 21.118 33.3995 20.148C33.0574 19.1781 32.5979 18.2082 32.1385 17.5258C31.6791 16.8435 30.7651 15.586 29.3917 14.5576C28.0379 13.5389 25.9167 12.9102 25.9167 12.9102Z" fill="#E4002B"/>
<path d="M36.3627 25.4263C36.3627 25.4263 36.1525 26.8495 35.7615 28.2581C35.3705 29.6618 34.6765 31.1337 34.3735 31.5919C34.0704 32.05 33.7576 32.6885 33.176 33.3709C32.6188 34.024 31.6267 35.2181 31.6267 35.2181C31.6267 35.2181 30.5074 36.2953 29.8623 36.9971C29.222 37.7039 27.5602 39.3561 27.0471 40.1701C26.3726 41.2424 26.2015 42.2903 26.1331 43.1578C26.0598 44.0303 26.6561 45.2878 27.2474 46.17C27.873 47.1058 29.1096 47.5249 29.1096 47.5249C29.1096 47.5249 28.8603 46.9157 29.0314 46.1456C29.2025 45.3755 30.3706 44.5031 30.7714 44.1619C31.2503 43.7525 32.7264 42.9336 33.2493 42.5632C33.7772 42.1977 34.8524 41.3983 34.8524 41.3983C34.8524 41.3983 35.7908 40.716 36.2161 40.3017C36.5582 39.9703 37.3988 39.0637 37.7947 38.5471C38.1906 38.0304 38.5425 37.2749 38.8309 36.6949C39.1193 36.1149 39.3099 35.3156 39.4467 34.4578C39.5885 33.5902 39.6178 32.5813 39.5298 31.8794C39.4418 31.1727 39.2317 30.193 39.0264 29.6666C38.8211 29.1354 38.5767 28.1606 37.8876 27.2248C37.1985 26.2743 36.3627 25.4263 36.3627 25.4263Z" fill="#64A70B"/>
<path d="M20.0566 29.1648C20.0566 29.1648 20.0811 28.9016 20.2179 28.3898C20.3548 27.878 20.8582 27.1226 20.8582 27.1226L21.7722 25.7286L22.8816 24.1299C22.8816 24.1299 23.4437 23.1941 23.5121 23.0333C23.5805 22.8724 23.9813 22.1413 24.084 21.7076C24.1866 21.2738 24.3479 20.1771 24.3479 19.9139C24.3479 19.6507 24.211 18.5785 23.9373 18.1203C23.6636 17.6621 23.1504 16.8531 22.3831 16.4436C21.6158 16.0342 20.5992 15.7954 20.5992 15.7954C20.5992 15.7954 20.8484 16.0684 20.9853 16.7068C21.1221 17.3453 21.1221 17.9253 21.1221 17.9253C21.1221 17.9253 21.2345 18.4615 20.8729 19.3193C20.5063 20.1771 19.822 21.2153 19.822 21.2153C19.822 21.2153 19.4017 21.8781 19.0498 22.424C18.7028 22.9699 18.3802 23.6815 18.1994 24.0909C18.0137 24.5004 18.0137 25.2997 18.0137 25.519C18.0137 25.7383 17.9012 26.3963 18.3216 27.22C18.6979 27.9511 18.9863 28.3167 19.2013 28.5311C19.4897 28.8187 20.0566 29.1648 20.0566 29.1648Z" fill="#00A0DE"/>
</svg>
